<?xml version="1.0" standalone="no"?>
<!DOCTYPE svg PUBLIC "-//W3C//DTD SVG 20010904//EN"
 "http://www.w3.org/TR/2001/REC-SVG-20010904/DTD/svg10.dtd">
<svg version="1.0" xmlns="http://www.w3.org/2000/svg"
 width="800.000000pt" height="800.000000pt" viewBox="0 0 800.000000 800.000000"
 preserveAspectRatio="xMidYMid meet">
<metadata>
Created by potrace 1.14, written by Peter Selinger 2001-2017
</metadata>
<g transform="translate(0.000000,800.000000) scale(0.100000,-0.100000)"
fill="#000000" stroke="none">
<path d="M5089 7468 c-50 -30 -1407 -1391 -1419 -1422 -15 -39 -12 -82 7 -119
9 -18 103 -119 210 -225 106 -106 193 -194 193 -195 0 -2 -33 -36 -74 -76
l-74 -73 -193 191 c-254 252 -311 285 -494 285 -78 0 -114 -5 -162 -23 l-63
-22 -297 297 c-342 342 -351 348 -488 348 -86 0 -148 -17 -225 -61 -63 -37
-295 -266 -342 -337 -76 -117 -97 -253 -57 -363 20 -53 46 -83 325 -363 l303
-305 -20 -59 c-29 -85 -35 -197 -15 -276 32 -126 57 -161 268 -375 l198 -201
-75 -74 -75 -75 -198 197 c-108 108 -208 202 -222 209 -38 19 -78 20 -117 4
-41 -17 -1419 -1393 -1434 -1432 -15 -40 -10 -86 12 -122 22 -37 970 -988
1011 -1015 39 -26 101 -30 139 -10 34 17 1401 1380 1419 1414 20 37 21 88 5
122 -10 18 -105 122 -213 230 l-197 198 75 75 75 75 246 -246 c212 -212 245
-250 243 -273 -5 -37 -5 -212 0 -236 2 -11 7 -45 10 -76 28 -242 152 -506 333
-708 112 -125 200 -122 292 8 70 98 287 377 350 451 31 35 70 80 86 99 17 19
55 62 85 95 31 34 67 73 80 89 13 15 28 27 33 27 5 0 35 -24 66 -54 31 -30 71
-67 88 -83 l33 -29 -26 -69 c-107 -297 53 -618 355 -712 104 -32 246 -27 345
11 153 58 265 170 322 322 30 81 35 104 35 191 0 147 -54 277 -161 384 -110
111 -237 163 -390 162 -82 -1 -142 -15 -255 -63 -30 -13 -32 -12 -119 72 l-88
84 109 101 c223 209 490 428 702 577 149 106 157 189 28 306 -134 121 -323
230 -492 284 -145 46 -239 60 -405 60 l-155 1 -244 243 -244 243 75 75 75 75
194 -194 c108 -107 210 -202 228 -212 37 -19 100 -15 136 9 28 18 1383 1374
1400 1401 8 11 14 34 16 50 6 86 29 59 -498 588 -274 274 -511 508 -526 519
-40 29 -106 31 -148 6z m211 -473 l134 -135 -235 -235 -235 -235 -132 133
c-72 72 -134 135 -138 139 -7 7 446 466 461 467 6 1 71 -60 145 -134z m480
-480 c74 -74 132 -137 130 -139 -3 -3 -108 -109 -235 -236 l-229 -230 -138
137 -138 138 232 232 c128 128 235 233 238 233 3 0 66 -61 140 -135z m-1254
-562 c-127 -128 -234 -233 -239 -233 -4 0 -68 61 -142 135 l-135 136 236 235
235 235 138 -138 138 -138 -231 -232z m-2004 -77 l275 -275 -186 -185 -186
-186 -273 273 c-168 168 -272 280 -272 291 0 45 46 109 158 218 107 104 148
132 198 137 7 1 135 -122 286 -273z m2709 -170 c1 -5 -103 -114 -231 -242
l-232 -232 -134 134 c-74 74 -134 137 -134 141 0 5 104 112 232 240 l231 231
133 -131 c73 -73 133 -136 135 -141z m-1906 -177 c32 -15 169 -145 506 -482
l460 -461 -88 -41 c-147 -69 -299 -176 -402 -284 -132 -140 -166 -179 -221
-260 -44 -65 -130 -228 -130 -248 0 -7 -3 -13 -8 -13 -11 0 -917 912 -936 943
-9 15 -20 50 -23 77 -12 98 0 114 321 435 335 334 323 323 373 341 54 19 97
17 148 -7z m1631 -1165 c99 -18 208 -55 299 -102 39 -20 72 -39 75 -42 3 -3
14 -10 24 -16 11 -6 21 -15 22 -20 2 -5 -25 -29 -59 -54 -61 -44 -267 -208
-277 -219 -3 -4 -21 -19 -40 -35 -299 -244 -764 -726 -1010 -1046 -19 -25 -39
-50 -45 -56 -5 -6 -28 -36 -50 -67 -22 -31 -43 -57 -48 -57 -14 0 -81 116
-118 205 -94 227 -104 503 -28 735 106 321 410 627 731 734 159 54 363 69 524
40z m-2776 -489 l135 -135 -235 -235 -235 -235 -138 138 -139 139 232 231
c127 128 235 232 238 232 4 0 68 -61 142 -135z m479 -479 c119 -119 133 -137
121 -151 -8 -9 -113 -115 -234 -236 l-220 -220 -138 138 -138 138 232 232
c128 128 235 233 238 233 3 0 66 -60 139 -134z m-1255 -567 l-236 -236 -138
138 -139 139 236 235 236 236 138 -138 138 -138 -235 -236z m3983 110 c53 -14
117 -69 145 -123 31 -61 35 -158 10 -218 -73 -167 -284 -209 -414 -83 -146
140 -75 391 123 432 48 10 71 9 136 -8z m-3399 -223 l132 -133 -230 -231
c-127 -128 -234 -232 -240 -232 -10 0 -270 258 -270 269 0 10 454 461 465 461
5 0 70 -60 143 -134z"/>
<path d="M6275 2992 c-32 -7 -74 -41 -91 -73 -11 -22 -16 -71 -18 -187 -2 -86
-6 -167 -9 -180 -3 -12 -13 -50 -22 -85 -9 -34 -33 -98 -55 -143 -122 -253
-350 -428 -610 -469 -25 -4 -53 -9 -63 -11 -10 -2 -46 -6 -80 -9 -192 -17
-252 -41 -274 -109 -28 -83 23 -177 104 -192 32 -6 187 0 258 10 345 50 635
218 827 483 84 116 172 317 193 443 3 19 8 42 10 50 15 54 22 282 10 342 -18
93 -97 150 -180 130z"/>
<path d="M7235 2924 c-60 -30 -88 -104 -74 -194 7 -47 4 -340 -4 -375 -3 -11
-8 -40 -11 -65 -24 -176 -88 -378 -172 -543 -241 -471 -690 -793 -1264 -903
-47 -9 -96 -18 -110 -19 -14 -2 -47 -6 -75 -9 -27 -4 -108 -9 -179 -11 -101
-4 -135 -8 -160 -23 -38 -22 -74 -83 -70 -120 1 -15 2 -35 3 -44 2 -26 55 -81
91 -95 57 -21 295 -10 500 24 120 19 110 17 206 42 217 56 429 146 619 263
329 205 612 539 759 898 15 36 31 74 36 85 11 24 68 218 75 255 3 14 7 36 10
50 3 14 8 41 11 60 4 19 8 44 10 55 18 92 26 407 14 533 -11 116 -119 185
-215 136z"/>
<path d="M6753 2910 c-64 -39 -68 -54 -69 -265 -1 -131 -6 -217 -17 -277 -80
-421 -336 -756 -705 -924 -42 -20 -84 -39 -92 -44 -28 -14 -184 -58 -260 -74
-103 -20 -160 -26 -284 -31 -120 -4 -157 -18 -189 -73 -21 -36 -25 -93 -9
-134 6 -14 27 -39 48 -54 36 -28 39 -29 163 -28 108 1 191 10 361 40 68 12
264 75 344 112 412 186 707 507 844 917 70 206 87 323 86 570 0 138 -3 166
-20 200 -38 78 -131 108 -201 65z"/>
</g>
</svg>
