<?xml version="1.0" encoding="UTF-8"?>
<svg width="1200pt" height="1200pt" version="1.1" viewBox="0 0 1200 1200" xmlns="http://www.w3.org/2000/svg">
 <path d="m600 259.93c-187.55 0-340.07 152.52-340.07 340.07 0 187.55 152.52 340.07 340.07 340.07 187.55 0 340.07-152.52 340.07-340.07 0-187.55-152.52-340.07-340.07-340.07zm0 45.344c163.04 0 294.73 131.69 294.73 294.73 0 163.04-131.69 294.73-294.73 294.73-163.04 0-294.73-131.69-294.73-294.73 0-163.04 131.69-294.73 294.73-294.73zm0 105.8c-62.336 0-113.36 51.02-113.36 113.36-0.085937 6.0703 2.2656 11.918 6.5273 16.238 4.2578 4.3242 10.074 6.7578 16.145 6.7578 6.0703 0 11.883-2.4336 16.145-6.7578 4.2617-4.3203 6.6133-10.168 6.5273-16.238 0-37.832 30.18-68.016 68.012-68.016s68.016 30.184 68.016 68.016c0.26953 31.047-15.719 46.934-38.023 68.016-11.148 10.539-23.531 21.504-34.004 35.895-10.477 14.391-18.656 33.094-18.656 54.789-0.085937 6.0703 2.2617 11.918 6.5234 16.242 4.2617 4.3203 10.078 6.7539 16.145 6.7539 6.0703 0 11.887-2.4336 16.148-6.7539 4.2617-4.3242 6.6094-10.172 6.5234-16.242 0-11.203 3.2852-18.984 9.9219-28.102 6.6328-9.1172 16.965-18.785 28.574-29.758 23.172-21.906 52.508-52.547 52.191-100.84v-0.23438c-0.12891-62.23-51.102-113.12-113.36-113.12zm0 317.4c-16.691 0-30.227 13.535-30.227 30.23 0 16.691 13.535 30.227 30.227 30.227 16.695 0 30.23-13.535 30.23-30.227 0-16.695-13.535-30.23-30.23-30.23z"/>
</svg>
