<?xml version="1.0" encoding="UTF-8"?>
<svg width="1200pt" height="1200pt" version="1.1" viewBox="0 0 1200 1200" xmlns="http://www.w3.org/2000/svg">
 <path d="m484.28 350.62c-5.5938 0.58594-10.77 3.2305-14.523 7.4219-3.7539 4.1875-5.8164 9.625-5.7852 15.25v143.59h-204.04c-0.78516-0.042969-1.5742-0.042969-2.3594 0-5.5977 0.58594-10.773 3.2305-14.527 7.418-3.7539 4.1914-5.8125 9.625-5.7852 15.25v287.17c0 6.0156 2.3906 11.781 6.6406 16.031 4.2539 4.25 10.02 6.6406 16.031 6.6406h680.14c6.0117 0 11.777-2.3906 16.031-6.6406 4.25-4.25 6.6367-10.016 6.6406-16.031v-196.48c-0.003906-6.0117-2.3906-11.777-6.6406-16.031-4.2539-4.25-10.02-6.6406-16.031-6.6406h-204.04v-234.27c0-6.0156-2.3906-11.781-6.6406-16.031-4.2539-4.2539-10.02-6.6406-16.031-6.6406h-226.71c-0.78516-0.042969-1.5742-0.042969-2.3633 0zm25.035 45.34h181.37v408.09h-181.37zm-226.71 166.26h181.37v241.83h-181.37zm453.43 90.688h181.37v151.14h-181.37z"/>
</svg>
