<?xml version="1.0" encoding="UTF-8"?>
<svg width="1200pt" height="1200pt" version="1.1" viewBox="0 0 1200 1200" xmlns="http://www.w3.org/2000/svg">
 <g>
  <path d="m788.85 542.98h-28.078c-2.0039-5.5391-4.2891-10.961-6.8398-16.23l19.949-19.977c15.602-15.621 15.594-41.027-0.019531-56.637l-23.98-23.98c-15.617-15.625-41.035-15.617-56.652 0l-20.387 20.383c-5.1523-2.4336-10.434-4.5898-15.816-6.4648v-28.918c0-22.094-17.969-40.062-40.062-40.062h-33.926c-22.094 0-40.062 17.969-40.062 40.062v28.898c-5.3906 1.8984-10.668 4.0703-15.805 6.5l-20.398-20.398c-15.613-15.621-41.031-15.633-56.652-0.003906l-23.965 23.961c-7.5664 7.5703-11.734 17.637-11.73 28.344 0.003907 10.703 4.1797 20.766 11.758 28.332l19.902 19.883c-2.5938 5.3398-4.8984 10.785-6.8945 16.312h-28.043c-22.094 0-40.062 17.969-40.062 40.062v33.926c0 22.094 17.969 40.062 40.062 40.062h27.07c1.9961 5.8555 4.3281 11.609 6.957 17.18l-19.016 19.012c-7.5703 7.5664-11.738 17.633-11.738 28.34 0.003906 10.699 4.1758 20.766 11.75 28.332l23.953 23.922c15.621 15.613 41.031 15.602 56.637-0.011718l18.562-18.562c5.6797 2.7578 11.562 5.2031 17.648 7.332v26.285c0 22.094 17.969 40.062 40.062 40.062h33.926c22.094 0 40.062-17.969 40.062-40.062v-26.273c6.0391-2.1133 11.938-4.5664 17.648-7.3438l18.562 18.562c15.617 15.613 41.02 15.625 56.645 0.011718l23.953-23.93c7.5703-7.5664 11.746-17.629 11.75-28.328 0-10.703-4.168-20.77-11.734-28.336l-19.086-19.086c2.6094-5.543 4.9219-11.246 6.9375-17.109h27.156c22.094 0 40.062-17.969 40.062-40.062v-33.926c-0.003907-22.094-17.973-40.062-40.066-40.062zm9.8359 73.988c0 5.4219-4.4141 9.832-9.832 9.832h-38.359c-6.9375 0-12.98 4.7188-14.664 11.449l-0.10156 0.49219c-2.8164 10.301-6.8281 20.266-12.195 30.164-3.7891 5.9336-2.9844 13.77 2.0547 18.812l26.883 26.887c1.8594 1.8555 2.8828 4.3242 2.8828 6.9531-0.003907 2.6289-1.0273 5.0977-2.8867 6.9531l-23.953 23.93c-3.8359 3.832-10.07 3.8203-13.898-0.011719l-26.465-26.461c-4.5977-4.5977-11.633-5.7344-17.445-2.832-0.46094 0.23438-0.92969 0.49609-1.4102 0.78906-0.023437 0.011719-0.046875 0.027344-0.074219 0.039063-9.5156 5.4336-19.805 9.7148-30.199 12.629-0.12109 0.03125-0.64844 0.15234-0.76953 0.17969-6.7305 1.6836-11.449 7.7266-11.449 14.664v37.422c0 5.4219-4.4141 9.832-9.832 9.832h-33.926c-5.4219 0-9.832-4.4141-9.832-9.832v-37.422c0-6.9375-4.7188-12.98-11.449-14.664l-0.40234-0.078125c-10.766-3.0156-21.051-7.3008-30.566-12.73-0.035156-0.019532-0.066406-0.035157-0.10156-0.054688-0.42187-0.25391-1.0352-0.59766-1.3828-0.77344-5.8203-2.9062-12.848-1.7734-17.445 2.832l-26.469 26.465c-3.832 3.8359-10.066 3.832-13.898 0.003906l-23.953-23.922c-1.8594-1.8594-2.8828-4.3281-2.8867-6.957 0-2.6289 1.0234-5.0977 2.8828-6.957l26.82-26.82c4.6016-4.5977 5.7422-11.629 2.832-17.445-0.27734-0.54688-0.59766-1.1055-0.70703-1.2617-5.4609-9.9453-9.6328-20.367-12.41-30.977-1.7422-6.6523-7.75-11.293-14.625-11.293h-38.297c-5.4219 0-9.832-4.4141-9.832-9.832v-33.926c0-5.4219 4.4141-9.832 9.832-9.832h39.043c6.7617 0 12.699-4.4922 14.543-10.992 3.0078-10.617 7.3945-20.992 13.039-30.848 3.3945-5.9219 2.3945-13.383-2.4336-18.207l-27.801-27.766c-1.8594-1.8555-2.8867-4.3242-2.8867-6.9531 0-2.6328 1.0234-5.0977 2.8789-6.957l23.961-23.961c3.8359-3.8359 10.07-3.832 13.906 0l28.199 28.199c4.7852 4.793 12.18 5.8008 18.09 2.4922 9.5039-5.3398 19.75-9.5547 30.445-12.52 6.543-1.8164 11.07-7.7734 11.07-14.566v-39.977c0-5.4219 4.4141-9.832 9.832-9.832h33.926c5.4219 0 9.832 4.4141 9.832 9.832v40.039c0 6.8008 4.5391 12.746 11.055 14.562 0.28516 0.097657 0.57422 0.18359 0.86719 0.26563 9.7227 2.6719 19.129 6.4648 28.492 11.555 1.6055 1.0781 3.4141 1.832 5.3008 2.2383 1.0156 0.21875 2.0664 0.33594 3.1445 0.33984h0.007813 0.011719 0.023437 0.042969 0.027344c2.4922-0.007812 4.8359-0.62109 6.9023-1.6953 1.3672-0.70703 2.6289-1.6289 3.7344-2.7344l28.199-28.199c3.832-3.832 10.062-3.8359 13.906 0l23.98 23.98c3.832 3.832 3.832 10.07 0.003906 13.902l-27.848 27.891c-5.1211 5.125-5.8555 13.125-1.875 19.074 5.2773 9.3477 9.4805 19.398 12.496 29.883 0.70312 2.4609 2.0273 4.6992 3.8359 6.5078 1.1484 1.1523 2.4922 2.1211 3.9453 2.8477 2.1016 1.0469 4.4141 1.5938 6.7617 1.5938h39.043c5.4219 0 9.832 4.4141 9.832 9.832z"/>
  <path d="m667.5 477.73c-0.0625-0.035156-0.12109-0.066406-0.18359-0.10156 0.11328 0.070312 0.22656 0.13672 0.33984 0.19922-0.054688-0.03125-0.10547-0.066407-0.15625-0.097657z"/>
  <path d="m600 510.07c-50.305 0-91.234 40.93-91.234 91.238 0 50.305 40.93 91.234 91.234 91.234s91.234-40.93 91.234-91.234c0.003906-50.309-40.926-91.238-91.234-91.238zm0 152.25c-33.637 0-61.008-27.367-61.008-61.008s27.367-61.012 61.008-61.012c33.637 0 61.008 27.367 61.008 61.012 0 33.637-27.367 61.008-61.008 61.008z"/>
 </g>
</svg>
